<svg width="261" height="319" viewBox="0 0 261 319" fill="none" xmlns="http://www.w3.org/2000/svg">
<g id="logo">
<g id="g126">
<path id="path128" d="M130.507 -2.75126e-05L0 48.808V221.081H9.02533C9.576 205.579 14.0547 162.035 44.3973 138.885C72.0253 115.225 110.14 107.949 130.507 79.6466C150.859 107.949 188.973 115.225 216.603 138.885C250.184 164.516 252.085 210.829 252.044 221.081H261V48.808L130.507 -2.75126e-05Z" fill="#4A4A4A"/>
</g>
<g id="g130">
<path id="path132" d="M215.457 253.339C213.09 225.179 199.018 204.107 176.218 188.242C195.613 194.245 211.018 205.766 223.454 221.526C215.722 193.725 196.958 177.275 169.856 169.218C186.612 167.513 202.401 170.098 217.152 178.261C201.144 157.455 179.246 152.114 154.397 154.238C164.266 149.074 174.589 146.995 185.561 148.011C170.44 138.119 154.822 138.207 138.714 146.093C135.958 139.217 133.296 132.589 130.38 125.334C127.417 132.725 124.766 139.335 122.034 146.146C114.284 142.233 106.428 140.061 97.9944 140.403C89.6597 140.739 82.0224 143.094 74.6731 148.306C86.2891 147.031 96.5944 149.05 106.304 154.255C94.4117 153.335 82.7064 153.825 71.3971 157.791C59.7704 161.875 46.6904 171.71 43.7691 178.309C62.7331 170.045 81.1371 166.445 90.8757 169.413C63.9784 177.305 45.2557 193.513 37.5477 221.118C50.0011 205.601 65.2944 194.209 84.4304 188.307C73.7117 196.145 64.1317 205.046 57.1197 216.438C50.2197 227.646 44.3357 246.386 45.4157 253.546C58.5131 231.737 74.2424 213.758 86.2664 207.354C67.3197 231.477 60.5904 258.055 65.0584 287.509C68.0157 276.01 71.8517 264.855 77.2411 254.259C82.6531 243.613 89.2171 233.749 97.3091 224.783C88.1904 251.457 90.0664 277.462 101.045 303.014C100.042 276.801 104.18 251.875 118.433 229.411C118.705 229.446 118.977 229.482 119.248 229.517L130.498 318.371L141.572 229.458C141.842 229.453 142.12 229.441 142.397 229.434C156.598 251.946 160.748 276.854 159.538 303.887C170.722 277.462 172.565 251.415 163.462 224.742C179.405 243.093 190.136 263.958 195.72 287.497C200.158 258.067 193.458 231.535 175.338 207.879C192.397 219.89 205.718 235.03 215.457 253.339Z" fill="#047A6B"/>
</g>
<g id="g134">
<path id="path136" d="M260.997 95.0974V118.265L130.501 61.084L0.00524902 118.265V95.0974L104.071 49.5027L130.501 37.916L156.932 49.5027L260.997 95.0974Z" fill="#C78E3B"/>
</g>
</g>
</svg>
