<svg width="391" height="202" viewBox="0 0 391 202" fill="none" xmlns="http://www.w3.org/2000/svg">
<g id="name">
<g id="g78">
<path id="path80" d="M17.1741 15.8345C18.9461 15.8345 20.4288 15.2385 21.6235 14.0452C22.8141 12.8532 23.4128 11.3705 23.4128 9.59587C23.4128 7.75587 22.8141 6.2572 21.6235 5.09853C20.4288 3.93987 18.9461 3.35987 17.1741 3.35987C15.4021 3.35987 13.9195 3.93987 12.7275 5.09853C11.5341 6.2572 10.9381 7.75587 10.9381 9.59587C10.9381 11.3705 11.5341 12.8532 12.7275 14.0452C13.9195 15.2385 15.4021 15.8345 17.1741 15.8345Z" fill="#4A4A4A"/>
</g>
<g id="g82">
<path id="path84" d="M36.8573 67.0571C35.732 68.6945 34.1293 69.9571 32.0507 70.8398C29.972 71.7265 27.432 72.1705 24.4333 72.1705C21.5027 72.1705 18.98 71.7265 16.868 70.8398C14.7547 69.9571 13.1373 68.7105 12.012 67.1078C10.888 65.5078 10.3253 63.6171 10.3253 61.4345C10.3253 58.3665 11.38 55.0798 13.4947 51.5678C15.6067 48.0571 18.9467 44.2238 23.5133 40.0665H25.4573C29.9547 44.1558 33.26 47.9731 35.3747 51.5171C37.4853 55.0611 38.5453 58.3345 38.5453 61.3331C38.5453 63.5158 37.9827 65.4225 36.8573 67.0571ZM28.9333 28.3091H20.0373C6.67733 39.4865 0 50.5291 0 61.4345C0 65.7971 1.02 69.6811 3.06533 73.0905C5.11067 76.4985 7.97333 79.1571 11.6533 81.0638C15.3347 82.9745 19.5933 83.9278 24.4333 83.9278C29.3413 83.9278 33.6173 82.9745 37.2653 81.0638C40.9107 79.1571 43.7573 76.4985 45.8027 73.0905C47.8467 69.6811 48.8707 65.7625 48.8707 61.3331C48.8707 50.4278 42.224 39.4185 28.9333 28.3091Z" fill="#4A4A4A"/>
</g>
<g id="g86">
<path id="path88" d="M31.6933 15.8345C33.4653 15.8345 34.948 15.2385 36.14 14.0452C37.3333 12.8532 37.9293 11.3705 37.9293 9.59587C37.9293 7.75587 37.3333 6.2572 36.14 5.09853C34.948 3.93987 33.4653 3.35987 31.6933 3.35987C29.9213 3.35987 28.436 3.93987 27.2467 5.09853C26.0533 6.2572 25.4573 7.75587 25.4573 9.59587C25.4573 11.3705 26.0533 12.8532 27.2467 14.0452C28.436 15.2385 29.9213 15.8345 31.6933 15.8345Z" fill="#4A4A4A"/>
</g>
<g id="g90">
<path id="path92" d="M84.3476 72.1705C81.1436 72.1705 78.3476 71.5745 75.9636 70.3812C73.5783 69.1892 71.7209 67.5345 70.3903 65.4225C69.0636 63.3105 68.3969 60.8892 68.3969 58.1638C68.3969 55.2998 69.1143 52.7438 70.5449 50.4958C71.9769 48.2452 73.9183 46.4572 76.3729 45.1265C78.8263 43.7985 81.5876 43.1318 84.6543 43.1318C87.5129 43.1318 90.6169 43.7238 93.9583 44.8878V72.1705H84.3476ZM84.6543 31.3745C80.9729 31.3745 77.5303 32.0585 74.3289 33.4198C71.1223 34.7838 68.2956 36.6772 65.8423 39.0932C63.3876 41.5145 61.4769 44.3438 60.1156 47.5812C58.7516 50.8185 58.0716 54.3465 58.0716 58.1638C58.0716 62.8665 59.1596 67.1785 61.3423 71.0958C63.5223 75.0172 66.5743 78.1358 70.4943 80.4518C74.4129 82.7692 79.0316 83.9278 84.3476 83.9278H93.9583V88.6305C93.9583 92.3798 93.0383 95.1052 91.1969 96.8105C89.3569 98.5145 86.3249 99.3665 82.0969 99.3665H62.1609V111.124H82.0969C86.6623 111.124 90.6009 110.255 93.9076 108.517C97.2129 106.779 99.7703 104.224 101.576 100.849C103.381 97.4745 104.285 93.4012 104.285 88.6305V36.7945C101.626 35.4305 98.5943 34.1878 95.1849 33.0625C91.7756 31.9372 88.2663 31.3745 84.6543 31.3745Z" fill="#4A4A4A"/>
</g>
<g id="g94">
<path id="path96" d="M297.934 17.6741C299.912 17.6741 301.546 17.0101 302.842 15.6795C304.137 14.3528 304.786 12.7328 304.786 10.8248C304.786 8.84747 304.137 7.21147 302.842 5.9168C301.546 4.62347 299.912 3.9728 297.934 3.9728C296.025 3.9728 294.408 4.62347 293.077 5.9168C291.749 7.21147 291.085 8.84747 291.085 10.8248C291.085 12.7328 291.749 14.3528 293.077 15.6795C294.408 17.0101 296.025 17.6741 297.934 17.6741Z" fill="#4A4A4A"/>
</g>
<g id="g98">
<path id="path100" d="M285.972 49.216C287.131 47.3427 288.748 45.86 290.829 44.7694C292.908 43.68 295.276 43.132 297.935 43.132C300.66 43.132 303.048 43.68 305.092 44.7694C307.137 45.86 308.739 47.36 309.897 49.2667C311.056 51.176 311.635 53.356 311.635 55.812C311.635 58.5374 310.679 61.0267 308.772 63.2747C306.863 65.524 304.103 67.5014 300.491 69.2054C299.716 69.5707 298.897 69.9174 298.047 70.2507C297.34 69.98 296.648 69.7014 295.991 69.408C292.175 67.7067 289.26 65.676 287.252 63.3254C285.239 60.9734 284.233 58.436 284.233 55.708C284.233 53.2547 284.813 51.092 285.972 49.216ZM386.273 72.1707V57.14C386.273 53.12 385.54 49.4214 384.075 46.0467C382.608 42.6734 380.531 39.76 377.839 37.304C375.144 34.852 371.96 32.9587 368.277 31.6307C364.599 30.3 360.54 29.636 356.111 29.636C352.225 29.636 348.409 30.1654 344.66 31.22C340.911 32.28 337.367 33.864 334.027 35.976L338.219 45.2814C340.536 44.1894 343.245 43.2694 346.347 42.5187C349.447 41.7707 352.636 41.3934 355.907 41.3934C360.064 41.3934 363.643 42.06 366.644 43.388C369.641 44.7187 371.94 46.5574 373.543 48.9094C375.144 51.2614 375.945 54.0054 375.945 57.14V72.1707H330.857C327.516 72.1707 324.329 72.0667 321.297 71.864C318.997 71.708 316.813 71.5014 314.691 71.268C316.204 69.8707 317.523 68.332 318.639 66.6494C320.853 63.3107 321.961 59.3214 321.961 54.6867C321.961 50.0507 320.869 45.9787 318.689 42.468C316.507 38.9574 313.612 36.232 309.999 34.2894C306.387 32.3454 302.364 31.3747 297.935 31.3747C293.501 31.3747 289.465 32.3654 285.82 34.34C282.172 36.3174 279.275 39.0427 277.128 42.5187C274.98 45.996 273.908 50.0174 273.908 54.5854C273.908 59.696 275.304 64.1094 278.099 67.8254C279.041 69.0774 280.125 70.2454 281.327 71.3427C279.401 71.556 277.395 71.7334 275.289 71.864C271.981 72.0667 268.521 72.1707 264.911 72.1707H247.224H247.221H229.535H211.848H211.845H194.159H176.469H158.783H141.095H128.927V0.0893682H118.601V83.928H128.927H141.095H158.781H176.469H194.159H211.845H211.848H229.535H247.221H247.224H264.911C270.293 83.928 275.697 83.6574 281.115 83.1094C286.535 82.5667 291.699 81.6267 296.607 80.2987C297.053 80.1774 297.472 80.0334 297.911 79.9054C301.008 80.8254 304.353 81.5894 307.953 82.1894C314.907 83.348 322.54 83.928 330.857 83.928H375.945H386.273H388.932L390.771 72.1707H386.273Z" fill="#4A4A4A"/>
</g>
<g id="g102">
<path id="path104" d="M41.8596 168.437H10.7276V142.677H0.827606V201.415H10.7276V176.829H41.8596V201.415H51.7609V142.677H41.8596V168.437Z" fill="#4A4A4A"/>
</g>
<g id="g106">
<path id="path108" d="M82.8569 179.431L94.0529 152.662L105.296 179.431H82.8569ZM89.2703 142.676L63.3409 201.415H73.6623L79.3476 187.823H108.82L114.528 201.415H125.1L99.4223 142.676H89.2703Z" fill="#4A4A4A"/>
</g>
<g id="g110">
<path id="path112" d="M136.681 201.415H146.582V176.998H173.266V168.606H146.582V151.155H176.035L176.117 142.676H136.681V201.415Z" fill="#4A4A4A"/>
</g>
<g id="g114">
<path id="path116" d="M198.235 179.431L209.431 152.662L220.674 179.431H198.235ZM204.649 142.676L178.719 201.415H189.041L194.726 187.823H224.198L229.906 201.415H240.478L214.801 142.676H204.649Z" fill="#4A4A4A"/>
</g>
<g id="g118">
<path id="path120" d="M318.936 142.677L304.497 191.017L289.902 142.677H280.168L265.653 191.014L251.134 142.677H240.478L260.282 201.416H270.436L284.869 154.796L299.05 201.416H309.286L329.172 142.677H318.936Z" fill="#4A4A4A"/>
</g>
<g id="g122">
<path id="path124" d="M348.688 179.431L359.884 152.662L371.126 179.431H348.688ZM380.358 201.415H390.93L365.253 142.676H355.101L329.172 201.415H339.493L345.178 187.823H374.65L380.358 201.415Z" fill="#4A4A4A"/>
</g>
</g>
</svg>
